<svg width="51" height="50" viewBox="0 0 51 50" fill="none" xmlns="http://www.w3.org/2000/svg">
<g clip-path="url(#clip0_1_166)">
<path d="M18.098 2.2818C19.0894 2.89549 20.0807 3.50917 21.255 4.2412C20.8124 4.46178 20.5183 4.62561 20.1711 4.74125C13.0182 7.39075 8.97479 13.4898 9.25452 21.1708C9.46482 26.1055 11.4296 30.3352 14.3139 34.2987C17.5509 38.7266 21.9617 41.4903 27.0508 43.2415C29.6722 44.1391 32.3464 44.1264 35.0233 43.6848C35.7229 43.5542 36.3961 43.3995 37.1329 43.0151C36.7247 42.9315 36.2873 42.7735 35.9136 42.8651C26.6774 44.7707 15.7325 37.2652 12.0704 27.1803C10.6252 23.2313 10.4892 19.2267 11.819 15.2607C13.3898 10.6035 17.9822 6.77635 22.7953 6.16837C22.1992 7.78272 20.3919 8.91883 20.8852 11.0922C22.3585 9.36498 23.7152 7.81922 25.0216 6.2756C25.4482 5.75303 25.5409 5.11853 24.9445 4.81596C22.9194 3.74173 20.8731 2.74407 18.8294 1.79673C18.6996 1.72658 18.4319 1.91451 18.2331 1.97339C18.1589 2.00177 18.1165 2.1549 18.098 2.2818Z" fill="#212020"/>
</g>
<defs>
<clipPath id="clip0_1_166">
<rect width="41.6012" height="29.4675" fill="white" transform="matrix(0.739966 0.672645 0.672645 -0.739966 0.0498047 21.9624)"/>
</clipPath>
</defs>
</svg>
