<svg width="35" height="153" viewBox="0 0 35 153" fill="none" xmlns="http://www.w3.org/2000/svg">
<path d="M0.61368 0.976948C13.773 7.96992 30.6751 44.0914 33.241 69.6302C36.0748 97.2264 32.7796 113.023 17.2655 145.061C19.3715 144.677 21.0608 144.175 22.6379 143.995C24.4271 143.712 26.3211 143.431 28.1005 143.58C28.6246 143.591 29.5458 144.584 29.6359 145.234C29.726 145.884 28.9678 146.946 28.4389 147.15C23.3637 148.978 18.2934 150.591 13.1158 152.309C11.4266 152.81 10.1835 152.134 9.70112 150.288C8.18344 143.235 6.56094 136.18 5.15053 129.022C4.87286 127.397 5.33624 125.464 5.38527 123.305C9.85304 125.134 9.24072 129.007 10.3299 131.839C11.5215 134.781 12.1841 137.928 13.3561 141.733C19.4291 132.91 23.3035 123.928 25.8276 114.377C35.2215 79.3923 28.8296 46.8566 10.4325 16.5315C8.00523 12.5895 5.15134 8.96172 2.6168 5.12526C2.11969 3.92631 1.62014 2.83528 0.61368 0.976948Z" fill="url(#paint0_linear_1_2537)"/>
<defs>
<linearGradient id="paint0_linear_1_2537" x1="34.3769" y1="77.3602" x2="-1.10318" y2="76.5542" gradientUnits="userSpaceOnUse">
<stop stop-color="#F0FBB9"/>
<stop offset="0.290069" stop-color="#FBB3A0"/>
<stop offset="0.531579" stop-color="#BFA2FD"/>
<stop offset="0.748685" stop-color="#A4D0FC"/>
<stop offset="0.875908" stop-color="#9FE9E2"/>
<stop offset="1" stop-color="#9FFACE"/>
</linearGradient>
</defs>
</svg>
