<svg width="20" height="20" viewBox="0 0 20 20" fill="none" xmlns="http://www.w3.org/2000/svg">
<mask id="mask0_1_2464" style="mask-type:luminance" maskUnits="userSpaceOnUse" x="0" y="0" width="20" height="20">
<path d="M10.4052 19.4659C15.7043 19.4659 20 15.1701 20 9.87105C20 4.57198 15.7043 0.276245 10.4052 0.276245C5.10616 0.276245 0.810425 4.57198 0.810425 9.87105C0.810425 15.1701 5.10616 19.4659 10.4052 19.4659Z" fill="white"/>
</mask>
<g mask="url(#mask0_1_2464)">
<path d="M2.33688 0.276245V12.0517H6.63274L10.4052 5.50977H20V0.276245H2.33688Z" fill="#DB4437"/>
<path d="M2.33688 0.276245V12.0517H6.63274L10.4052 5.50977H20V0.276245H2.33688Z" fill="url(#paint0_linear_1_2464)"/>
<path d="M0.810425 19.4659H9.94729L14.1995 15.2137V12.0517H6.61092L0.810425 2.07532V19.4659Z" fill="#0F9D58"/>
<path d="M0.810425 19.4659H9.94729L14.1995 15.2137V12.0517H6.61092L0.810425 2.07532V19.4659Z" fill="url(#paint1_linear_1_2464)"/>
<path d="M10.4053 5.51013L14.1778 12.052L9.96915 19.4662H20.0001V5.51013H10.4053Z" fill="#FFCD40"/>
<path d="M10.4053 5.51013L14.1778 12.052L9.96915 19.4662H20.0001V5.51013H10.4053Z" fill="url(#paint2_linear_1_2464)"/>
<path d="M6.73087 12.0188L2.33688 4.68091L6.58913 12.0733L6.73087 12.0188Z" fill="#3E2723" fill-opacity="0.1"/>
<path d="M14.0907 12.1929L14.0035 12.1493L9.93658 19.4544L14.1125 12.1493L14.0907 12.1929Z" fill="#263238" fill-opacity="0.1"/>
<path d="M10.4051 5.51013V7.7998L18.9532 5.51013H10.4051Z" fill="url(#paint3_radial_1_2464)"/>
<path d="M2.33688 4.69189L8.5735 10.9285L6.63274 12.0515L2.33688 4.69189Z" fill="url(#paint4_radial_1_2464)"/>
<path d="M9.94739 19.4655L12.2371 10.9283L14.1778 12.0514L9.94739 19.4655Z" fill="url(#paint5_radial_1_2464)"/>
<path d="M10.4052 14.2327C12.8139 14.2327 14.7665 12.2801 14.7665 9.87141C14.7665 7.46274 12.8139 5.51013 10.4052 5.51013C7.99652 5.51013 6.04391 7.46274 6.04391 9.87141C6.04391 12.2801 7.99652 14.2327 10.4052 14.2327Z" fill="#F1F1F1"/>
<path d="M10.4052 13.3601C12.3322 13.3601 13.8943 11.798 13.8943 9.8711C13.8943 7.94417 12.3322 6.38208 10.4052 6.38208C8.47832 6.38208 6.91623 7.94417 6.91623 9.8711C6.91623 11.798 8.47832 13.3601 10.4052 13.3601Z" fill="#4285F4"/>
<path d="M10.4052 19.4659C15.7043 19.4659 20 15.1701 20 9.87105C20 4.57198 15.7043 0.276245 10.4052 0.276245C5.10616 0.276245 0.810425 4.57198 0.810425 9.87105C0.810425 15.1701 5.10616 19.4659 10.4052 19.4659Z" fill="url(#paint6_radial_1_2464)"/>
<path d="M14.1777 12.0516C13.7944 12.7125 13.2441 13.2611 12.582 13.6424C11.9199 14.0238 11.1693 14.2245 10.4052 14.2245C9.64118 14.2245 8.89053 14.0238 8.22846 13.6424C7.56638 13.2611 7.0161 12.7125 6.63273 12.0516L0.810425 2.1842L6.63273 12.1606C7.0161 12.8215 7.56638 13.3701 8.22846 13.7515C8.89053 14.1328 9.64118 14.3335 10.4052 14.3335C11.1693 14.3335 11.9199 14.1328 12.582 13.7515C13.2441 13.3701 13.7944 12.8215 14.1777 12.1606V12.0516Z" fill="white" fill-opacity="0.1"/>
<path d="M10.5143 5.51013H10.4597C11.6164 5.51013 12.7257 5.96962 13.5436 6.78752C14.3615 7.60542 14.821 8.71472 14.821 9.87141C14.821 11.0281 14.3615 12.1374 13.5436 12.9553C12.7257 13.7732 11.6164 14.2327 10.4597 14.2327H10.5143C12.913 14.2327 14.8755 12.2701 14.8755 9.87141C14.8755 7.47271 12.913 5.51013 10.5143 5.51013ZM10.4052 19.3572C12.9405 19.3572 15.3728 18.3538 17.1706 16.5662C18.9684 14.7786 19.9856 12.3521 20 9.81689V9.87141C20 12.4161 18.9892 14.8566 17.1898 16.656C15.3904 18.4553 12.9499 19.4662 10.4052 19.4662C7.86053 19.4662 5.42005 18.4553 3.62068 16.656C1.8213 14.8566 0.810425 12.4161 0.810425 9.87141V9.81689C0.82483 12.3521 1.84206 14.7786 3.63988 16.5662C5.43769 18.3538 7.86995 19.3572 10.4052 19.3572Z" fill="#3E2723" fill-opacity="0.1"/>
<path d="M14.2213 12.1934C14.5258 11.671 14.7163 11.0899 14.7802 10.4886C14.8441 9.88726 14.78 9.2792 14.592 8.70441C14.7616 9.2602 14.8123 9.84544 14.7409 10.4221C14.6695 10.9988 14.4777 11.554 14.1777 12.0517L10.0781 19.4659L14.2431 12.2152L14.2213 12.1934ZM10.4052 0.385277C12.9405 0.385236 15.3728 1.38863 17.1706 3.17623C18.9684 4.96383 19.9856 7.39032 20 9.92556V9.87105C20 7.32635 18.9892 4.88587 17.1898 3.0865C15.3904 1.28712 12.9499 0.276245 10.4052 0.276245C7.86053 0.276245 5.42005 1.28712 3.62068 3.0865C1.8213 4.88587 0.810425 7.32635 0.810425 9.87105V9.92556C0.82483 7.39032 1.84206 4.96383 3.63988 3.17623C5.43769 1.38863 7.86995 0.385236 10.4052 0.385277Z" fill="white" fill-opacity="0.2"/>
<path d="M10.4052 5.40039C8.00649 5.40039 6.04391 7.36296 6.04391 9.76166V9.8707C6.04391 7.472 8.00649 5.50942 10.4052 5.50942H20V5.40039H10.4052Z" fill="#3E2723" fill-opacity="0.2"/>
</g>
<defs>
<linearGradient id="paint0_linear_1_2464" x1="3.13282" y1="7.69041" x2="8.85699" y2="4.35404" gradientUnits="userSpaceOnUse">
<stop stop-color="#A52714" stop-opacity="0.6"/>
<stop offset="0.7" stop-color="#A52714" stop-opacity="0"/>
</linearGradient>
<linearGradient id="paint1_linear_1_2464" x1="12.0298" y1="17.4488" x2="5.66234" y2="13.7199" gradientUnits="userSpaceOnUse">
<stop stop-color="#055524" stop-opacity="0.4"/>
<stop offset="0.3" stop-color="#055524" stop-opacity="0"/>
</linearGradient>
<linearGradient id="paint2_linear_1_2464" x1="13.3382" y1="4.94317" x2="14.941" y2="11.9539" gradientUnits="userSpaceOnUse">
<stop stop-color="#EA6100" stop-opacity="0.3"/>
<stop offset="0.7" stop-color="#EA6100" stop-opacity="0"/>
</linearGradient>
<radialGradient id="paint3_radial_1_2464" cx="0" cy="0" r="1" gradientUnits="userSpaceOnUse" gradientTransform="translate(9.99077 5.51013) scale(9.16958)">
<stop stop-color="#3E2723" stop-opacity="0.2"/>
<stop offset="1" stop-color="#3E2723" stop-opacity="0"/>
</radialGradient>
<radialGradient id="paint4_radial_1_2464" cx="0" cy="0" r="1" gradientUnits="userSpaceOnUse" gradientTransform="translate(2.32598 4.69189) scale(8.50448)">
<stop stop-color="#3E2723" stop-opacity="0.2"/>
<stop offset="1" stop-color="#3E2723" stop-opacity="0"/>
</radialGradient>
<radialGradient id="paint5_radial_1_2464" cx="0" cy="0" r="1" gradientUnits="userSpaceOnUse" gradientTransform="translate(10.3835 9.88164) scale(9.5839)">
<stop stop-color="#263238" stop-opacity="0.2"/>
<stop offset="1" stop-color="#263238" stop-opacity="0"/>
</radialGradient>
<radialGradient id="paint6_radial_1_2464" cx="0" cy="0" r="1" gradientUnits="userSpaceOnUse" gradientTransform="translate(3.67796 2.89301) scale(19.2768)">
<stop stop-color="white" stop-opacity="0.1"/>
<stop offset="1" stop-color="white" stop-opacity="0"/>
</radialGradient>
</defs>
</svg>
