<svg width="21" height="21" viewBox="0 0 21 21" fill="none" xmlns="http://www.w3.org/2000/svg">
<path d="M10.813 0.343994C5.22301 0.343994 0.679688 4.94128 0.679688 10.598C0.679688 16.2546 5.22301 20.8519 10.813 20.8519C16.4037 20.8519 20.9464 16.2546 20.9464 10.598C20.9464 4.94128 16.4037 0.343994 10.813 0.343994ZM14.2304 2.2229C16.423 3.14238 18.181 4.92131 19.0897 7.14001L17.0357 7.99953C16.3443 6.32051 15.0404 4.98128 13.381 4.30169L14.2304 2.2229ZM7.39635 2.2229L8.24568 4.30169C6.58635 5.00125 5.26302 6.32051 4.59102 7.99953L2.53702 7.14001C3.44569 4.90134 5.18368 3.14238 7.39635 2.2229ZM7.39635 18.973C5.20368 18.0536 3.44569 16.2746 2.53702 14.0559L4.59102 13.1965C5.28235 14.8755 6.58635 16.2146 8.24568 16.8943L7.39635 18.973ZM5.26302 10.598C5.26302 7.49978 7.75168 4.98128 10.813 4.98128C13.875 4.98128 16.3637 7.49978 16.3637 10.598C16.3637 13.6961 13.875 16.2146 10.813 16.2146C7.75168 16.2146 5.26302 13.6961 5.26302 10.598ZM14.2304 18.973L13.381 16.8943C15.0404 16.1947 16.3637 14.8755 17.0357 13.1965L19.0897 14.0559C18.181 16.2946 16.443 18.0536 14.2304 18.973Z" fill="#3A3A3A"/>
</svg>
