<svg xmlns="http://www.w3.org/2000/svg" version="1.1" xmlns:xlink="http://www.w3.org/1999/xlink" width="512" height="512" x="0" y="0" viewBox="0 0 64 64" style="enable-background:new 0 0 512 512" xml:space="preserve"><g><path d="M33.17 61.5a30 30 0 0 1-7.64-58.95 1.5 1.5 0 0 1 1.76 2.05 26.66 26.66 0 0 0-2.22 10.74 27 27 0 0 0 33.84 26.08 1.5 1.5 0 0 1 1.76 2 30 30 0 0 1-27.5 18.08zM23.43 6.38A27 27 0 1 0 56.56 45a29.65 29.65 0 0 1-4.56.3 30 30 0 0 1-30-30 29.62 29.62 0 0 1 1.43-8.92z" data-name="Layer 92" fill="#000000" opacity="1" data-original="#000000"></path></g></svg>