<svg width="140" height="26" viewBox="0 0 140 26" fill="none" xmlns="http://www.w3.org/2000/svg">
<path d="M12.404 0.467041C5.56125 0.467041 0 6.02829 0 12.871C0 19.7138 5.56125 25.275 12.404 25.275C19.2468 25.275 24.808 19.7138 24.808 12.871C24.808 6.02829 19.2468 0.467041 12.404 0.467041ZM16.587 2.7399C19.2709 3.85215 21.4229 6.00411 22.5351 8.68802L20.0205 9.72773C19.1742 7.69666 17.5784 6.07665 15.5473 5.25455L16.587 2.7399ZM8.22098 2.7399L9.26069 5.25455C7.22962 6.10083 5.60961 7.69666 4.78751 9.72773L2.27286 8.68802C3.38511 5.97993 5.51289 3.85215 8.22098 2.7399ZM8.22098 23.0022C5.53707 21.8899 3.38511 19.738 2.27286 17.0541L4.78751 16.0144C5.63379 18.0454 7.22962 19.6654 9.26069 20.4875L8.22098 23.0022ZM5.60961 12.871C5.60961 9.12324 8.6562 6.07665 12.404 6.07665C16.1518 6.07665 19.1984 9.12324 19.1984 12.871C19.1984 16.6188 16.1518 19.6654 12.404 19.6654C8.6562 19.6654 5.60961 16.6188 5.60961 12.871ZM16.587 23.0022L15.5473 20.4875C17.5784 19.6413 19.1984 18.0454 20.0205 16.0144L22.5351 17.0541C21.4229 19.7622 19.2951 21.8899 16.587 23.0022Z" fill="url(#paint0_linear_1_2446)"/>
<path d="M12.8775 10.0001L13.3551 10.1899C13.3931 10.2047 13.4184 10.2437 13.4184 10.2868C13.4184 10.3299 13.3931 10.3689 13.3551 10.3837L12.8775 10.5735L12.6989 11.081C12.685 11.1214 12.6482 11.1483 12.6077 11.1483C12.5672 11.1483 12.5304 11.1214 12.5165 11.081L12.3379 10.5735L11.8603 10.3837C11.8223 10.3689 11.797 10.3299 11.797 10.2868C11.797 10.2437 11.8223 10.2047 11.8603 10.1899L12.3379 10.0001L12.5165 9.4926C12.5304 9.45222 12.5672 9.42529 12.6077 9.42529C12.6482 9.42529 12.685 9.45222 12.6989 9.4926L12.8775 10.0001ZM15.2666 14.7478C15.5035 14.9996 15.5035 15.4088 15.2666 15.6619L14.8283 16.1276C14.5914 16.3793 14.2063 16.3793 13.9682 16.1276L9.13809 10.9935C8.9012 10.7418 8.9012 10.3326 9.13809 10.0795L9.57638 9.6151C9.81326 9.36337 10.1984 9.36337 10.4365 9.6151L15.2666 14.7478ZM9.71192 10.5372L11.042 11.9506L11.3372 11.637L10.0071 10.2235L9.71192 10.5372ZM15.7556 11.0029C15.8126 11.0258 15.8506 11.0837 15.8506 11.1483C15.8506 11.2129 15.8126 11.2708 15.7556 11.2937L15.0399 11.5791L14.7713 12.3396C14.7498 12.4002 14.6953 12.4406 14.6345 12.4406C14.5737 12.4406 14.5192 12.4002 14.4977 12.3396L14.2291 11.5791L13.5134 11.2937C13.4564 11.2708 13.4184 11.2129 13.4184 11.1483C13.4184 11.0837 13.4564 11.0258 13.5134 11.0029L14.2291 10.7176L14.4977 9.95701C14.5192 9.89643 14.5737 9.85605 14.6345 9.85605C14.6953 9.85605 14.7498 9.89643 14.7713 9.95701L15.0399 10.7176L15.7556 11.0029ZM11.2966 14.449C11.3536 14.4719 11.3916 14.5298 11.3916 14.5944C11.3916 14.659 11.3536 14.7169 11.2966 14.7398L10.5809 15.0251L10.3124 15.7857C10.2908 15.8463 10.2364 15.8867 10.1756 15.8867C10.1147 15.8867 10.0603 15.8463 10.0387 15.7857L9.77019 15.0251L9.05448 14.7398C8.99748 14.7169 8.95947 14.659 8.95947 14.5944C8.95947 14.5298 8.99748 14.4719 9.05448 14.449L9.77019 14.1636L10.0387 13.4031C10.0603 13.3425 10.1147 13.3021 10.1756 13.3021C10.2364 13.3021 10.2908 13.3425 10.3124 13.4031L10.5809 14.1636L11.2966 14.449Z" fill="url(#paint1_linear_1_2446)"/>
<path d="M34.5579 20.7288L29.8711 5.01289H32.7305L35.2244 13.3116C35.3534 13.7416 35.4752 14.2002 35.5899 14.6875C35.7046 15.1605 35.8192 15.741 35.9339 16.429C36.0629 15.7267 36.1847 15.1462 36.2994 14.6875C36.4284 14.2146 36.5574 13.7559 36.6864 13.3116L39.1803 5.01289H42.2117L44.6411 13.3116C44.7701 13.7559 44.8919 14.2217 45.0066 14.709C45.1356 15.1964 45.2645 15.7697 45.3935 16.429C45.5369 15.698 45.6659 15.1032 45.7805 14.6445C45.9095 14.1716 46.0314 13.7416 46.146 13.3546L48.6829 5.01289H51.4778L46.705 20.7288H44.0391L40.6852 9.29124L37.2453 20.7288H34.5579Z" fill="#1E293B"/>
<path d="M52.9431 20.7288V10.1082H55.566V20.7288H52.9431ZM54.2331 7.97978C53.7888 7.97978 53.4089 7.82929 53.0936 7.5283C52.7926 7.21298 52.6421 6.83316 52.6421 6.38884C52.6421 5.94452 52.7926 5.57187 53.0936 5.27088C53.4089 4.96989 53.7888 4.8194 54.2331 4.8194C54.6774 4.8194 55.0501 4.96989 55.351 5.27088C55.6664 5.57187 55.824 5.94452 55.824 6.38884C55.824 6.83316 55.6664 7.21298 55.351 7.5283C55.0501 7.82929 54.6774 7.97978 54.2331 7.97978Z" fill="#1E293B"/>
<path d="M66.0587 20.7288H57.502V18.5789L62.7908 12.3011H57.502V10.1082H66.0587V12.2796L60.7054 18.5359H66.0587V20.7288Z" fill="#1E293B"/>
<path d="M71.1681 21.0083C70.0501 21.0083 69.1615 20.7073 68.5022 20.1054C67.8572 19.489 67.5347 18.6864 67.5347 17.6974C67.5347 16.7228 67.8716 15.9488 68.5452 15.3755C69.2332 14.7879 70.2078 14.4439 71.4691 14.3436L74.651 14.0856V13.8491C74.651 13.3618 74.5578 12.9748 74.3715 12.6881C74.1995 12.3871 73.9487 12.1721 73.619 12.0431C73.2894 11.8998 72.9024 11.8281 72.4581 11.8281C71.6841 11.8281 71.0893 11.9858 70.6736 12.3011C70.258 12.6021 70.0501 13.0321 70.0501 13.5911H67.8142C67.8142 12.8171 68.0077 12.1506 68.3947 11.5917C68.796 11.0183 69.355 10.574 70.0716 10.2587C70.8026 9.94338 71.6411 9.78572 72.5871 9.78572C73.5474 9.78572 74.3715 9.95771 75.0595 10.3017C75.7474 10.6314 76.2778 11.133 76.6504 11.8066C77.0231 12.466 77.2094 13.2901 77.2094 14.2791V20.7288H74.909L74.7155 19.1594C74.4862 19.704 74.0418 20.1484 73.3825 20.4923C72.7375 20.8363 71.9994 21.0083 71.1681 21.0083ZM72.0066 19.0304C72.8235 19.0304 73.4685 18.8011 73.9415 18.3424C74.4288 17.8838 74.6725 17.246 74.6725 16.429V15.87L72.4581 16.042C71.6411 16.1137 71.0606 16.2857 70.7166 16.558C70.3726 16.816 70.2006 17.16 70.2006 17.5899C70.2006 18.0629 70.3583 18.4212 70.6736 18.6649C70.9889 18.9086 71.4333 19.0304 72.0066 19.0304Z" fill="#1E293B"/>
<path d="M86.2359 10.0652V12.4946H85.2684C84.3081 12.4946 83.5556 12.7526 83.011 13.2686C82.4663 13.7702 82.194 14.5371 82.194 15.569V20.7288H79.5711V10.1297H82.0435L82.2585 12.3226H82.0005C82.1439 11.6203 82.4807 11.047 83.011 10.6027C83.5413 10.1584 84.2293 9.93621 85.0749 9.93621C85.2612 9.93621 85.4476 9.94338 85.6339 9.95771C85.8202 9.97205 86.0209 10.0079 86.2359 10.0652Z" fill="#1E293B"/>
<path d="M91.8037 21.0083C90.7717 21.0083 89.8831 20.779 89.1378 20.3203C88.4068 19.8474 87.8335 19.1952 87.4178 18.3639C87.0165 17.5326 86.8158 16.5651 86.8158 15.4615C86.8158 14.3579 87.0165 13.3833 87.4178 12.5376C87.8335 11.6777 88.4283 11.004 89.2023 10.5167C89.9762 10.0294 90.8935 9.78572 91.9542 9.78572C92.6995 9.78572 93.3803 9.93621 93.9966 10.2372C94.6129 10.5239 95.0859 10.9323 95.4155 11.4627V4.7334H98.017V20.7288H95.609L95.437 19.0734C95.1217 19.6754 94.6344 20.1484 93.9751 20.4923C93.3301 20.8363 92.6063 21.0083 91.8037 21.0083ZM92.3842 18.6004C93.0005 18.6004 93.5308 18.4714 93.9751 18.2134C94.4194 17.9411 94.7634 17.5613 95.0071 17.074C95.2651 16.5723 95.394 16.0062 95.394 15.3755C95.394 14.7305 95.2651 14.1716 95.0071 13.6986C94.7634 13.2113 94.4194 12.8314 93.9751 12.5591C93.5308 12.2725 93.0005 12.1291 92.3842 12.1291C91.7822 12.1291 91.259 12.2725 90.8147 12.5591C90.3704 12.8314 90.0264 13.2113 89.7827 13.6986C89.5534 14.1859 89.4388 14.7449 89.4388 15.3755C89.4388 16.0062 89.5534 16.5651 89.7827 17.0525C90.0264 17.5398 90.3704 17.9196 90.8147 18.1919C91.259 18.4642 91.7822 18.6004 92.3842 18.6004Z" fill="#1E293B"/>
<path d="M100.793 17.5039H103.287C103.302 17.9626 103.474 18.3281 103.803 18.6004C104.133 18.8727 104.592 19.0089 105.179 19.0089C105.81 19.0089 106.283 18.8942 106.598 18.6649C106.928 18.4356 107.093 18.1274 107.093 17.7404C107.093 17.4824 107.007 17.2531 106.835 17.0525C106.663 16.8518 106.34 16.7013 105.867 16.601L103.954 16.1495C102.993 15.9345 102.277 15.5905 101.804 15.1175C101.345 14.6302 101.116 13.9637 101.116 13.1181C101.116 12.4301 101.295 11.8353 101.653 11.3337C102.026 10.832 102.528 10.4522 103.158 10.1942C103.789 9.92188 104.513 9.78572 105.33 9.78572C106.118 9.78572 106.813 9.92905 107.415 10.2157C108.017 10.5024 108.483 10.9037 108.813 11.4197C109.157 11.9356 109.336 12.5376 109.35 13.2256H106.856C106.856 12.7669 106.713 12.4086 106.426 12.1506C106.14 11.8783 105.738 11.7421 105.222 11.7421C104.706 11.7421 104.305 11.8568 104.018 12.0861C103.732 12.3155 103.588 12.6236 103.588 13.0106C103.588 13.5983 104.047 13.9996 104.964 14.2146L106.878 14.666C107.766 14.8667 108.433 15.1892 108.877 15.6335C109.336 16.0778 109.565 16.7085 109.565 17.5254C109.565 18.2421 109.379 18.8656 109.006 19.3959C108.633 19.9119 108.11 20.3132 107.437 20.5998C106.763 20.8722 105.989 21.0083 105.115 21.0083C103.796 21.0083 102.743 20.6858 101.954 20.0409C101.18 19.3959 100.793 18.5502 100.793 17.5039Z" fill="#1E293B"/>
<path d="M113.325 20.7288H110.702V4.7334H113.347V11.4842C113.676 10.9682 114.135 10.5597 114.723 10.2587C115.325 9.94338 116.012 9.78572 116.786 9.78572C118.091 9.78572 119.08 10.1799 119.753 10.9682C120.441 11.7565 120.785 12.8314 120.785 14.1931V20.7288H118.162V14.8165C118.162 14.2146 118.069 13.7201 117.883 13.3331C117.697 12.9461 117.439 12.6595 117.109 12.4731C116.779 12.2725 116.392 12.1721 115.948 12.1721C115.403 12.1721 114.93 12.294 114.529 12.5376C114.142 12.7669 113.841 13.0894 113.626 13.5051C113.425 13.9207 113.325 14.3937 113.325 14.924V20.7288Z" fill="#1E293B"/>
<path d="M121.879 15.397C121.879 14.2934 122.123 13.3259 122.61 12.4946C123.097 11.649 123.771 10.9897 124.631 10.5167C125.491 10.0437 126.465 9.80722 127.555 9.80722C128.658 9.80722 129.633 10.0437 130.479 10.5167C131.339 10.9897 132.012 11.649 132.5 12.4946C132.987 13.3259 133.231 14.2934 133.231 15.397C133.231 16.5006 132.987 17.4753 132.5 18.3209C132.012 19.1522 131.339 19.8044 130.479 20.2773C129.633 20.7503 128.658 20.9868 127.555 20.9868C126.465 20.9868 125.491 20.7503 124.631 20.2773C123.771 19.8044 123.097 19.1522 122.61 18.3209C122.123 17.4753 121.879 16.5006 121.879 15.397ZM124.502 15.397C124.502 16.042 124.631 16.6081 124.889 17.0955C125.161 17.5828 125.519 17.9626 125.964 18.2349C126.422 18.5072 126.953 18.6434 127.555 18.6434C128.157 18.6434 128.687 18.5072 129.146 18.2349C129.604 17.9626 129.963 17.5828 130.221 17.0955C130.479 16.6081 130.608 16.042 130.608 15.397C130.608 14.7377 130.479 14.1716 130.221 13.6986C129.963 13.2113 129.604 12.8314 129.146 12.5591C128.687 12.2868 128.157 12.1506 127.555 12.1506C126.953 12.1506 126.422 12.2868 125.964 12.5591C125.519 12.8314 125.161 13.2113 124.889 13.6986C124.631 14.1716 124.502 14.7377 124.502 15.397Z" fill="#1E293B"/>
<path d="M133.291 10.1082H139.999V12.3011H133.291V10.1082ZM137.956 20.7288H135.334V6.79733H137.956V20.7288Z" fill="#1E293B"/>
<defs>
<linearGradient id="paint0_linear_1_2446" x1="12.404" y1="0.467041" x2="12.404" y2="25.275" gradientUnits="userSpaceOnUse">
<stop stop-color="#5237F8"/>
<stop offset="0.0001" stop-color="#6033EF"/>
<stop offset="1" stop-color="#FF008A"/>
</linearGradient>
<linearGradient id="paint1_linear_1_2446" x1="12.405" y1="9.42529" x2="12.405" y2="16.3164" gradientUnits="userSpaceOnUse">
<stop stop-color="#5237F8"/>
<stop offset="0.0001" stop-color="#6033EF"/>
<stop offset="1" stop-color="#FF008A"/>
</linearGradient>
</defs>
</svg>
