<svg width="20" height="19" viewBox="0 0 20 19" fill="none" xmlns="http://www.w3.org/2000/svg">
<path d="M9.28264 1.10728C9.51312 0.640338 9.62836 0.406869 9.78481 0.332275C9.92093 0.267375 10.0791 0.267375 10.2152 0.332275C10.3716 0.406869 10.4869 0.640338 10.7174 1.10728L12.904 5.53724C12.9721 5.6751 13.0061 5.74402 13.0558 5.79754C13.0999 5.84492 13.1527 5.88331 13.2113 5.91058C13.2775 5.94138 13.3536 5.9525 13.5057 5.97473L18.397 6.68967C18.912 6.76495 19.1696 6.8026 19.2888 6.9284C19.3925 7.03785 19.4412 7.18826 19.4215 7.33774C19.3988 7.50954 19.2124 7.69114 18.8395 8.05434L15.3014 11.5004C15.1911 11.6078 15.136 11.6615 15.1004 11.7254C15.0689 11.782 15.0487 11.8442 15.0409 11.9085C15.0321 11.9811 15.0451 12.057 15.0711 12.2087L15.9059 17.0761C15.994 17.5895 16.038 17.8461 15.9553 17.9985C15.8833 18.131 15.7553 18.2239 15.607 18.2514C15.4366 18.283 15.2061 18.1618 14.7451 17.9194L10.3724 15.6198C10.2361 15.5481 10.168 15.5123 10.0962 15.4982C10.0327 15.4858 9.96732 15.4858 9.90378 15.4982C9.83201 15.5123 9.76389 15.5481 9.62764 15.6198L5.25491 17.9194C4.7939 18.1618 4.5634 18.283 4.39296 18.2514C4.24467 18.2239 4.11671 18.131 4.04472 17.9985C3.96199 17.8461 4.00601 17.5894 4.09406 17.0761L4.92887 12.2087C4.9549 12.057 4.96791 11.9811 4.9591 11.9085C4.95131 11.8442 4.9311 11.782 4.89959 11.7254C4.86401 11.6615 4.80886 11.6078 4.69857 11.5004L1.16054 8.05434C0.787648 7.69114 0.601199 7.50954 0.578511 7.33774C0.558771 7.18826 0.607538 7.03785 0.711235 6.9284C0.83042 6.8026 1.08796 6.76495 1.60303 6.68967L6.4943 5.97473C6.64641 5.9525 6.72247 5.94138 6.7887 5.91058C6.84735 5.88331 6.90015 5.84492 6.94417 5.79754C6.99389 5.74402 7.02791 5.6751 7.09596 5.53724L9.28264 1.10728Z" fill="#FFB200"/>
</svg>
