<svg width="26" height="28" viewBox="0 0 26 28" fill="none" xmlns="http://www.w3.org/2000/svg">
<path d="M20.2826 4.80101C19.2003 3.62093 18.6038 2.10542 18.6043 0.536621H13.7118V19.2878C13.674 20.3026 13.2255 21.2637 12.4606 21.9689C11.6957 22.674 10.6741 23.0682 9.61094 23.0683C7.3626 23.0683 5.49427 21.3142 5.49427 19.1366C5.49427 16.5356 8.1226 14.5849 10.8301 15.3864V10.6078C5.3676 9.91223 0.585938 13.9649 0.585938 19.1366C0.585938 24.1722 4.95594 27.7561 9.59511 27.7561C14.5668 27.7561 18.6043 23.9 18.6043 19.1366V9.62491C20.5882 10.9857 22.9701 11.7157 25.4126 11.7117V7.03906C25.4126 7.03906 22.4359 7.17516 20.2826 4.80101Z" fill="#0D0D0D" fill-opacity="0.8"/>
</svg>
